<mxfile host="app.diagrams.net" agent="Mozilla/5.0 (Macintosh; Intel Mac OS X 10_15_7) AppleWebKit/537.36 (KHTML, like Gecko) Chrome/129.0.0.0 Safari/537.36" version="24.7.17">
  <diagram name="Pagina-1" id="ucpCiZUxigczPr1KQcqd">
    <mxGraphModel dx="1208" dy="740" grid="1" gridSize="10" guides="1" tooltips="1" connect="1" arrows="1" fold="1" page="1" pageScale="1" pageWidth="827" pageHeight="1169" math="0" shadow="0">
      <root>
        <mxCell id="0" />
        <mxCell id="1" parent="0" />
        <mxCell id="l0CFkqH3YDuF3kW8Tgko-1" value="" style="endArrow=diamondThin;html=1;rounded=0;endFill=1;" edge="1" parent="1">
          <mxGeometry width="50" height="50" relative="1" as="geometry">
            <mxPoint x="41" y="164" as="sourcePoint" />
            <mxPoint x="41" y="204" as="targetPoint" />
          </mxGeometry>
        </mxCell>
        <mxCell id="l0CFkqH3YDuF3kW8Tgko-2" value="#1&lt;div&gt;+12V&lt;/div&gt;" style="edgeLabel;html=1;align=center;verticalAlign=middle;resizable=0;points=[];" vertex="1" connectable="0" parent="l0CFkqH3YDuF3kW8Tgko-1">
          <mxGeometry x="0.15" y="-1" relative="1" as="geometry">
            <mxPoint y="-33" as="offset" />
          </mxGeometry>
        </mxCell>
        <mxCell id="l0CFkqH3YDuF3kW8Tgko-3" value="" style="endArrow=diamondThin;html=1;rounded=0;endFill=1;" edge="1" parent="1">
          <mxGeometry width="50" height="50" relative="1" as="geometry">
            <mxPoint x="80" y="164" as="sourcePoint" />
            <mxPoint x="80" y="204" as="targetPoint" />
          </mxGeometry>
        </mxCell>
        <mxCell id="l0CFkqH3YDuF3kW8Tgko-4" value="#2&lt;div&gt;-12V&lt;/div&gt;" style="edgeLabel;html=1;align=center;verticalAlign=middle;resizable=0;points=[];" vertex="1" connectable="0" parent="l0CFkqH3YDuF3kW8Tgko-3">
          <mxGeometry x="0.15" y="-1" relative="1" as="geometry">
            <mxPoint y="-33" as="offset" />
          </mxGeometry>
        </mxCell>
        <mxCell id="l0CFkqH3YDuF3kW8Tgko-5" value="" style="endArrow=diamondThin;html=1;rounded=0;endFill=1;" edge="1" parent="1">
          <mxGeometry width="50" height="50" relative="1" as="geometry">
            <mxPoint x="121" y="164" as="sourcePoint" />
            <mxPoint x="121" y="204" as="targetPoint" />
          </mxGeometry>
        </mxCell>
        <mxCell id="l0CFkqH3YDuF3kW8Tgko-6" value="#3&lt;div&gt;~B&lt;/div&gt;" style="edgeLabel;html=1;align=center;verticalAlign=middle;resizable=0;points=[];" vertex="1" connectable="0" parent="l0CFkqH3YDuF3kW8Tgko-5">
          <mxGeometry x="0.15" y="-1" relative="1" as="geometry">
            <mxPoint y="-33" as="offset" />
          </mxGeometry>
        </mxCell>
      </root>
    </mxGraphModel>
  </diagram>
</mxfile>
